<?xml version="1.0" encoding="UTF-8"?>
<svg width="40px" height="40px" viewBox="0 0 40 40" version="1.1" xmlns="http://www.w3.org/2000/svg" xmlns:xlink="http://www.w3.org/1999/xlink">
    <!-- Generator: Sketch 50.2 (55047) - http://www.bohemiancoding.com/sketch -->
    <title>logo</title>
    <desc>Created with Sketch.</desc>
    <defs></defs>
    <g id="Symbols" stroke="none" stroke-width="1" fill="none" fill-rule="evenodd">
        <g id="Navigation/1600px/01_Default_NormalState" transform="translate(-24.000000, -20.000000)" fill="#ffffff">
            <g id="Navigation/1600px/SignedIn/Default">
                <g id="Main" transform="translate(24.000000, 20.000000)">
                    <g id="logo">
                        <path d="M40,20 C40,31.045695 31.045695,40 20,40 C8.954305,40 0,31.045695 0,20 C0,8.954305 8.954305,0 20,0 C31.045695,0 40,8.954305 40,20 Z M20,3.58857143 C10.9369982,3.58857145 3.58992471,10.9354745 3.58971433,19.9984762 C3.58950395,29.061478 10.9362364,36.4087221 19.9992381,36.4091428 C29.0622399,36.4095636 36.4096545,29.0630017 36.4102857,20 C36.4102857,10.9368495 29.0631505,3.58971429 20,3.58971429 L20,3.58857143 Z M30.112,27.4971429 L25.8971429,27.4971429 L25.8971429,15.232 L22.2925714,15.232 L22.2925714,30.9142857 L30.1131429,30.9142857 L30.1131429,27.4971429 L30.112,27.4971429 Z M19.8445714,9.32571429 L16.2422857,9.32571429 L16.2422857,20.9588571 C16.2795697,21.3086424 16.1665363,21.6578029 15.9313372,21.9193774 C15.6961381,22.1809519 15.3609096,22.3303219 15.0091429,22.3302857 C14.6621491,22.3203753 14.3346973,22.1674258 14.1043957,21.9076872 C13.8740942,21.6479486 13.7614436,21.3045421 13.7931429,20.9588571 L13.7931429,9.32228571 L10.2011429,9.32228571 L10.2011429,20.8125714 C10.2011429,23.7108571 12.3428571,25.1657143 15.0434286,25.1657143 C17.7714286,25.1657143 19.8434286,23.6731429 19.8434286,20.8125714 L19.8434286,9.32228571 L19.8445714,9.32571429 Z"></path>
                    </g>
                </g>
            </g>
        </g>
    </g>
</svg>